<?xml version="1.0" encoding="UTF-8"?>
<svg width="40" height="40" viewBox="0 0 40 40" fill="none" xmlns="http://www.w3.org/2000/svg">
  <!-- Background Circle -->
  <circle cx="20" cy="20" r="20" fill="#EC4899"/>
  
  <!-- Hotel Building -->
  <path d="M12 28V15C12 14.4477 12.4477 14 13 14H27C27.5523 14 28 14.4477 28 15V28" stroke="white" stroke-width="2"/>
  
  <!-- Windows -->
  <rect x="15" y="17" width="3" height="3" rx="0.5" fill="white"/>
  <rect x="22" y="17" width="3" height="3" rx="0.5" fill="white"/>
  <rect x="15" y="22" width="3" height="3" rx="0.5" fill="white"/>
  <rect x="22" y="22" width="3" height="3" rx="0.5" fill="white"/>
  
  <!-- Door -->
  <rect x="18" y="25" width="4" height="3" rx="0.5" fill="white"/>
  
  <!-- Star -->
  <path d="M20 8L21.5 12H26L22.5 14.5L24 19L20 16.5L16 19L17.5 14.5L14 12H18.5L20 8Z" fill="white"/>
</svg> 